<svg width="48" height="48" viewBox="0 0 48 48" fill="none" xmlns="http://www.w3.org/2000/svg">
<circle cx="24" cy="24" r="23.5" fill="#F8F8F8" stroke="#ECECEC"/>
<path d="M18.7886 14.267L20.2114 13.8385C20.8591 13.6431 21.5558 13.69 22.1714 13.9706C22.787 14.2512 23.2795 14.7463 23.5568 15.3633L24.4423 17.333C24.6809 17.8637 24.7473 18.4557 24.6323 19.026C24.5174 19.5963 24.2267 20.1163 23.8011 20.513L22.254 21.9556C22.2349 21.9735 22.2192 21.9947 22.2077 22.0182C22.0457 22.349 22.2917 23.2327 23.0623 24.5682C23.9314 26.0733 24.6026 26.6682 24.9137 26.5765L26.9443 25.955C27.5004 25.7852 28.0957 25.7937 28.6467 25.9792C29.1978 26.1647 29.677 26.518 30.0171 26.9896L31.2754 28.7322C31.6705 29.2793 31.8535 29.9513 31.7904 30.6232C31.7273 31.2951 31.4225 31.9212 30.9326 32.3853L29.85 33.4096C29.4735 33.7662 29.0164 34.0264 28.5176 34.168C28.0188 34.3097 27.4931 34.3286 26.9854 34.223C23.9708 33.5956 21.27 31.1682 18.8597 26.9939C16.4486 22.817 15.6968 19.2599 16.6654 16.3345C16.8276 15.8447 17.1052 15.4011 17.4749 15.0413C17.8446 14.6815 18.2946 14.4159 18.7886 14.267ZM19.1614 15.4979C18.865 15.5872 18.5945 15.7465 18.3726 15.9623C18.1508 16.1782 17.9842 16.4443 17.8868 16.7382C17.052 19.259 17.7283 22.4613 19.974 26.351C22.218 30.2382 24.6506 32.4239 27.2486 32.9639C27.5532 33.0271 27.8686 33.0157 28.1678 32.9306C28.4671 32.8455 28.7413 32.6893 28.9671 32.4753L30.0488 31.4519C30.3128 31.2021 30.477 30.8649 30.5111 30.5031C30.5451 30.1413 30.4467 29.7794 30.234 29.4847L28.9757 27.7413C28.7926 27.4874 28.5346 27.2972 28.238 27.1973C27.9413 27.0974 27.6208 27.0928 27.3214 27.1842L25.2857 27.8073C24.1594 28.1425 23.1 27.2039 21.9497 25.2102C20.9751 23.5233 20.6374 22.3045 21.054 21.4533C21.1346 21.2887 21.2443 21.1405 21.378 21.0153L22.9251 19.5727C23.1544 19.3591 23.311 19.0791 23.3729 18.7719C23.4349 18.4648 23.3991 18.1459 23.2706 17.8602L22.3843 15.8913C22.2349 15.559 21.9697 15.2923 21.6382 15.1412C21.3066 14.9901 20.9314 14.9649 20.5826 15.0702L19.1614 15.4979Z" fill="#858585"/>
</svg>
