<svg width="48" height="38" viewBox="0 0 48 38" fill="none" xmlns="http://www.w3.org/2000/svg">
<circle cx="32" cy="21.5" r="16" fill="#FEF4F1"/>
<path d="M4 16.5H16V18.5H4V16.5ZM2 11.5H12V13.5H2V11.5Z" fill="black"/>
<path d="M29.919 17.106L26.919 10.106C26.842 9.92608 26.7139 9.77273 26.5505 9.665C26.3872 9.55727 26.1957 9.49989 26 9.5H23V7.5C23 7.23478 22.8947 6.98043 22.7071 6.79289C22.5196 6.60536 22.2652 6.5 22 6.5H6.00003V8.5H21V21.056C20.5444 21.3206 20.1456 21.6728 19.8267 22.0922C19.5078 22.5117 19.2751 22.9902 19.142 23.5H12.858C12.6146 22.5573 12.0358 21.7358 11.23 21.1894C10.4242 20.643 9.44684 20.4092 8.48103 20.5319C7.51522 20.6546 6.6273 21.1253 5.98371 21.8558C5.34012 22.5863 4.98505 23.5264 4.98505 24.5C4.98505 25.4736 5.34012 26.4137 5.98371 27.1442C6.6273 27.8747 7.51522 28.3454 8.48103 28.4681C9.44684 28.5908 10.4242 28.357 11.23 27.8106C12.0358 27.2642 12.6146 26.4427 12.858 25.5H19.142C19.3596 26.3582 19.8571 27.1194 20.5558 27.6632C21.2546 28.2069 22.1147 28.5021 23 28.5021C23.8854 28.5021 24.7455 28.2069 25.4443 27.6632C26.143 27.1194 26.6405 26.3582 26.858 25.5H29C29.2652 25.5 29.5196 25.3946 29.7071 25.2071C29.8947 25.0196 30 24.7652 30 24.5V17.5C30.0001 17.3645 29.9725 17.2305 29.919 17.106ZM9.00003 26.5C8.60447 26.5 8.21779 26.3827 7.88889 26.1629C7.55999 25.9432 7.30365 25.6308 7.15227 25.2654C7.0009 24.8999 6.96129 24.4978 7.03846 24.1098C7.11563 23.7219 7.30611 23.3655 7.58582 23.0858C7.86552 22.8061 8.22189 22.6156 8.60985 22.5384C8.99781 22.4613 9.39994 22.5009 9.7654 22.6522C10.1308 22.8036 10.4432 23.06 10.663 23.3889C10.8827 23.7178 11 24.1044 11 24.5C10.9995 25.0303 10.7886 25.5387 10.4137 25.9136C10.0387 26.2886 9.5303 26.4995 9.00003 26.5ZM23 11.5H25.34L27.484 16.5H23V11.5ZM23 26.5C22.6045 26.5 22.2178 26.3827 21.8889 26.1629C21.56 25.9432 21.3036 25.6308 21.1523 25.2654C21.0009 24.8999 20.9613 24.4978 21.0385 24.1098C21.1156 23.7219 21.3061 23.3655 21.5858 23.0858C21.8655 22.8061 22.2219 22.6156 22.6098 22.5384C22.9978 22.4613 23.3999 22.5009 23.7654 22.6522C24.1308 22.8036 24.4432 23.06 24.663 23.3889C24.8827 23.7178 25 24.1044 25 24.5C24.9995 25.0303 24.7886 25.5387 24.4137 25.9136C24.0387 26.2886 23.5303 26.4995 23 26.5ZM28 23.5H26.858C26.6378 22.6434 26.1395 21.8842 25.4413 21.3413C24.7431 20.7983 23.8845 20.5025 23 20.5V18.5H28V23.5Z" fill="black"/>
</svg>
