<svg width="48" height="38" viewBox="0 0 48 38" fill="none" xmlns="http://www.w3.org/2000/svg">
<circle cx="32" cy="21.5" r="16" fill="#FEF4F1"/>
<path d="M4.66666 15.1666V19.1666C4.66666 24.1946 4.66666 26.7093 6.22932 28.2706C7.79066 29.8333 10.3053 29.8333 15.3333 29.8333H16.6667C21.6947 29.8333 24.2093 29.8333 25.7707 28.2706C27.3333 26.7093 27.3333 24.1946 27.3333 19.1666V15.1666" stroke="black" stroke-width="1.5"/>
<path d="M12.6666 3.16663H19.3333L20.2026 11.856C20.2599 12.4423 20.1939 13.0342 20.0087 13.5935C19.8236 14.1528 19.5234 14.6671 19.1276 15.1035C18.7318 15.5399 18.249 15.8886 17.7104 16.1272C17.1718 16.3658 16.5891 16.4891 16 16.4891C15.4108 16.4891 14.8282 16.3658 14.2896 16.1272C13.7509 15.8886 13.2682 15.5399 12.8723 15.1035C12.4765 14.6671 12.1764 14.1528 11.9912 13.5935C11.8061 13.0342 11.74 12.4423 11.7973 11.856L12.6666 3.16663Z" stroke="black" stroke-width="1.5"/>
<path d="M4.43999 7.63463C4.67732 6.44796 4.79599 5.85463 5.03732 5.37329C5.28878 4.87201 5.64285 4.42921 6.07653 4.07363C6.51021 3.71805 7.01381 3.45763 7.55466 3.30929C8.07466 3.16663 8.67999 3.16663 9.89066 3.16663H12.6667L11.7 12.8266C11.649 13.3795 11.4857 13.9161 11.2201 14.4036C10.9545 14.8911 10.5921 15.3193 10.1553 15.662C9.71847 16.0046 9.2163 16.2545 8.67953 16.3963C8.14277 16.5382 7.5827 16.569 7.03362 16.4868C6.48454 16.4047 5.95801 16.2113 5.48624 15.9186C5.01448 15.6259 4.60742 15.24 4.28997 14.7846C3.97253 14.3291 3.75139 13.8136 3.64008 13.2697C3.52878 12.7258 3.52966 12.1649 3.64266 11.6213L4.43999 7.63463ZM27.56 7.63463C27.3227 6.44796 27.204 5.85463 26.9627 5.37329C26.7112 4.87201 26.3571 4.42921 25.9235 4.07363C25.4898 3.71805 24.9862 3.45763 24.4453 3.30929C23.9253 3.16663 23.32 3.16663 22.1093 3.16663H19.3333L20.3 12.8266C20.351 13.3795 20.5143 13.9161 20.7799 14.4036C21.0455 14.8911 21.4078 15.3193 21.8447 15.662C22.2815 16.0046 22.7837 16.2545 23.3204 16.3963C23.8572 16.5382 24.4173 16.569 24.9664 16.4868C25.5154 16.4047 26.042 16.2113 26.5137 15.9186C26.9855 15.6259 27.3926 15.24 27.71 14.7846C28.0274 14.3291 28.2486 13.8136 28.3599 13.2697C28.4712 12.7258 28.4703 12.1649 28.3573 11.6213L27.56 7.63463Z" stroke="black" stroke-width="1.5"/>
<path d="M12.6667 29.1666V25.1666C12.6667 23.9199 12.6667 23.2973 12.9347 22.8333C13.1102 22.5292 13.3626 22.2768 13.6667 22.1013C14.1307 21.8333 14.7533 21.8333 16 21.8333C17.2467 21.8333 17.8693 21.8333 18.3333 22.1013C18.6373 22.2768 18.8898 22.5292 19.0653 22.8333C19.3333 23.2973 19.3333 23.9199 19.3333 25.1666V29.1666" stroke="black" stroke-width="1.5" stroke-linecap="round"/>
</svg>
