<svg width="174" height="34" viewBox="0 0 174 34" fill="none" xmlns="http://www.w3.org/2000/svg">
<path d="M151.499 33.3001C150.206 33.3001 149.152 32.9468 148.339 32.2401C147.526 31.5468 147.119 30.6934 147.119 29.6801C147.119 28.6534 147.406 27.8001 147.979 27.1201C148.552 26.4534 149.399 25.9401 150.519 25.5801C151.052 25.4068 151.646 25.2068 152.299 24.9801C152.952 24.7534 153.572 24.4934 154.159 24.2001C154.759 23.9068 155.246 23.5934 155.619 23.2601C156.006 22.9134 156.199 22.5468 156.199 22.1601C156.199 21.8268 155.966 21.5001 155.499 21.1801C155.046 20.8601 154.179 20.4934 152.899 20.0801C151.926 19.7734 151.006 19.4268 150.139 19.0401C149.272 18.6534 148.479 18.2268 147.759 17.7601C147.052 17.2801 146.439 16.7534 145.919 16.1801C145.399 15.5934 144.992 14.9534 144.699 14.2601C144.419 13.5668 144.279 12.8134 144.279 12.0001C144.279 11.0001 144.512 10.0934 144.979 9.28009C145.459 8.45342 146.112 7.80009 146.939 7.32009C147.779 6.84009 148.739 6.60009 149.819 6.60009C151.326 6.60009 152.592 6.86675 153.619 7.40009C154.659 7.92009 155.546 8.72675 156.279 9.82009C156.759 10.5401 157.112 11.2201 157.339 11.8601C157.566 12.4868 157.839 13.0201 158.159 13.4601C158.386 13.7534 158.632 13.9934 158.899 14.1801C159.166 14.3668 159.426 14.4601 159.679 14.4601C160.066 14.4601 160.412 14.3201 160.719 14.0401C161.026 13.7468 161.246 13.3934 161.379 12.9801C161.566 12.4201 161.826 11.7134 162.159 10.8601C162.506 9.99342 162.859 9.31342 163.219 8.82009C163.739 8.10009 164.399 7.50675 165.199 7.04009C166.012 6.57342 167.012 6.34009 168.199 6.34009C170.172 6.34009 171.546 6.81342 172.319 7.76009C173.106 8.70675 173.499 9.96009 173.499 11.5201C173.499 12.1868 173.372 12.9268 173.119 13.7401C172.879 14.5534 172.546 15.4068 172.119 16.3001C171.706 17.1934 171.232 18.0868 170.699 18.9801C170.179 19.8734 169.632 20.7334 169.059 21.5601C168.486 22.3868 167.926 23.1468 167.379 23.8401C166.299 25.2001 165.159 26.4534 163.959 27.6001C162.772 28.7601 161.519 29.7668 160.199 30.6201C158.892 31.4734 157.512 32.1334 156.059 32.6001C154.619 33.0668 153.099 33.3001 151.499 33.3001Z" fill="white"/>
<path d="M126.975 25.2399C126.148 25.2399 125.415 25.1466 124.775 24.9599C124.148 24.7732 123.595 24.5132 123.115 24.1799C122.648 23.8332 122.228 23.4266 121.855 22.9599C121.468 22.4666 121.128 21.9199 120.835 21.3199C120.542 20.7066 120.295 20.0599 120.095 19.3799C119.908 18.6866 119.762 17.9666 119.655 17.2199C119.562 16.4732 119.515 15.7199 119.515 14.9599C119.515 12.6932 120.055 10.7599 121.135 9.15991C122.215 7.54658 123.695 6.31325 125.575 5.45991C127.468 4.59325 129.622 4.15991 132.035 4.15991C133.275 4.15991 134.495 4.26658 135.695 4.47991C136.908 4.69325 138.002 5.02658 138.975 5.47991C139.948 5.93325 140.728 6.51991 141.315 7.23991C141.902 7.94658 142.195 8.79991 142.195 9.79991C142.195 10.7866 141.995 11.5532 141.595 12.0999C141.208 12.6466 140.702 13.0266 140.075 13.2399C139.462 13.4399 138.822 13.5399 138.155 13.5399C137.235 13.5399 136.442 13.4532 135.775 13.2799C135.108 13.1066 134.388 13.0199 133.615 13.0199C133.042 13.0199 132.542 13.1732 132.115 13.4799C131.688 13.7732 131.475 14.3266 131.475 15.1399C131.475 15.4866 131.488 15.8332 131.515 16.1799C131.555 16.5132 131.602 16.8466 131.655 17.1799C131.708 17.4999 131.762 17.8266 131.815 18.1599C131.868 18.4932 131.908 18.8199 131.935 19.1399C131.975 19.4599 131.995 19.7866 131.995 20.1199C131.995 21.8132 131.595 23.0932 130.795 23.9599C130.008 24.8132 128.735 25.2399 126.975 25.2399Z" fill="white"/>
<path d="M102.194 25.86C99.9538 25.86 97.9338 25.6133 96.1338 25.12C94.3471 24.64 92.8205 23.9067 91.5538 22.92C90.2871 21.92 89.3138 20.6467 88.6338 19.1C87.9671 17.5533 87.6338 15.72 87.6338 13.6C87.6338 13.0133 87.6671 12.4467 87.7338 11.9C87.8138 11.3533 87.9271 10.8333 88.0738 10.34C88.2338 9.84667 88.4205 9.38667 88.6338 8.96C89.1805 7.89333 89.9405 7.05333 90.9138 6.44C91.9005 5.81333 93.0805 5.5 94.4538 5.5C95.8138 5.5 96.8271 5.7 97.4938 6.1C98.1738 6.5 98.6271 6.99333 98.8538 7.58C99.0938 8.16667 99.2271 8.73333 99.2538 9.28C99.2805 9.62667 99.3005 9.96 99.3138 10.28C99.3405 10.5867 99.3671 10.8867 99.3938 11.18C99.4205 11.46 99.4471 11.7333 99.4738 12C99.5138 12.2533 99.5538 12.5 99.5938 12.74C99.7538 13.62 99.9538 14.32 100.194 14.84C100.447 15.36 100.76 15.74 101.134 15.98C101.52 16.2067 101.98 16.32 102.514 16.32C102.86 16.32 103.2 16.2333 103.534 16.06C103.88 15.8867 104.194 15.58 104.474 15.14C104.767 14.7 105.007 14.0867 105.194 13.3C105.287 12.9267 105.354 12.5667 105.394 12.22C105.447 11.86 105.487 11.5133 105.514 11.18C105.554 10.8333 105.607 10.4933 105.674 10.16C105.74 9.82667 105.834 9.49333 105.954 9.16C106.3 8.25333 106.874 7.50667 107.674 6.92C108.487 6.33333 109.64 6.04 111.134 6.04C112.454 6.04 113.467 6.37333 114.174 7.04C114.894 7.69333 115.414 8.56667 115.734 9.66C115.827 9.99333 115.907 10.3467 115.974 10.72C116.04 11.0933 116.087 11.4867 116.114 11.9C116.154 12.3 116.18 12.7133 116.194 13.14C116.22 13.5667 116.234 14 116.234 14.44C116.234 17.2133 115.627 19.44 114.414 21.12C113.2 22.7867 111.534 23.9933 109.414 24.74C107.307 25.4867 104.9 25.86 102.194 25.86Z" fill="white"/>
<path d="M63.2013 26.1799C62.2813 26.1799 61.4013 26.0466 60.5613 25.7799C59.7346 25.5266 59.0613 25.0799 58.5413 24.4399C58.0213 23.8132 57.7613 22.9332 57.7613 21.7999C57.7613 21.1866 57.8413 20.6266 58.0013 20.1199C58.1746 19.5999 58.4213 19.1332 58.7413 18.7199C59.0746 18.2799 59.4746 17.8932 59.9413 17.5599C60.4213 17.2132 60.9546 16.9199 61.5413 16.6799C62.1279 16.4399 62.7546 16.2466 63.4213 16.0999C63.9146 15.9932 64.4079 15.8732 64.9013 15.7399C65.4079 15.5932 65.8279 15.4399 66.1613 15.2799C66.5079 15.1066 66.6813 14.9266 66.6813 14.7399C66.6813 14.5532 66.4813 14.3932 66.0813 14.2599C65.6813 14.1132 65.1813 13.9932 64.5813 13.8999C63.9946 13.7932 63.3946 13.7132 62.7813 13.6599C62.0079 13.5799 61.2946 13.4199 60.6413 13.1799C59.9879 12.9399 59.4146 12.6199 58.9213 12.2199C58.3879 11.7799 57.9746 11.2466 57.6813 10.6199C57.3879 9.97991 57.2413 9.25325 57.2413 8.43991C57.2413 7.57325 57.4879 6.77991 57.9813 6.05991C58.4746 5.33991 59.1479 4.75991 60.0013 4.31991C60.8546 3.87991 61.8213 3.65991 62.9013 3.65991C63.5679 3.65991 64.2013 3.73991 64.8013 3.89991C65.4013 4.05991 65.9679 4.29325 66.5013 4.59991C67.2479 5.01325 67.9279 5.53991 68.5413 6.17991C69.1546 6.81991 69.6879 7.53325 70.1413 8.31991C70.5013 8.93325 70.8346 9.45325 71.1413 9.87991C71.4479 10.3066 71.7079 10.5199 71.9213 10.5199C72.0413 10.5199 72.1813 10.4332 72.3413 10.2599C72.5013 10.0732 72.6813 9.82658 72.8813 9.51991C73.0946 9.21325 73.3146 8.87325 73.5413 8.49991C73.9279 7.87325 74.3746 7.30658 74.8813 6.79991C75.4013 6.29325 75.9679 5.86658 76.5813 5.51991C77.2213 5.14658 77.9013 4.86658 78.6213 4.67991C79.3546 4.47991 80.1213 4.37991 80.9213 4.37991C82.4279 4.37991 83.6213 4.77325 84.5013 5.55991C85.3813 6.34658 85.8213 7.43325 85.8213 8.81991C85.8213 9.77991 85.6346 10.6132 85.2613 11.3199C84.8879 12.0132 84.3679 12.5732 83.7013 12.9999C83.2879 13.2666 82.8346 13.4799 82.3413 13.6399C81.8479 13.7999 81.3079 13.9132 80.7213 13.9799C80.0679 14.0466 79.5079 14.1132 79.0413 14.1799C78.5746 14.2466 78.2213 14.3199 77.9813 14.3999C77.7413 14.4666 77.6213 14.5466 77.6213 14.6399C77.6213 14.7732 77.9946 14.9266 78.7413 15.0999C79.4879 15.2732 80.4479 15.4532 81.6213 15.6399C82.0479 15.7066 82.4413 15.7999 82.8013 15.9199C83.1746 16.0266 83.5146 16.1666 83.8213 16.3399C84.1413 16.4999 84.4213 16.6866 84.6613 16.8999C85.1413 17.3132 85.5013 17.8199 85.7413 18.4199C85.9946 19.0199 86.1213 19.7199 86.1213 20.5199C86.1213 21.3732 85.9346 22.0999 85.5613 22.6999C85.2013 23.2866 84.7213 23.7599 84.1213 24.1199C83.5346 24.4799 82.8879 24.7399 82.1813 24.8999C81.4746 25.0599 80.7879 25.1399 80.1213 25.1399C79.3479 25.1399 78.6013 25.0132 77.8813 24.7599C77.1746 24.5199 76.5146 24.1466 75.9013 23.6399C75.4879 23.2932 75.0946 22.8866 74.7213 22.4199C74.3613 21.9399 74.0213 21.3999 73.7013 20.7999C73.5546 20.5066 73.3346 20.1466 73.0413 19.7199C72.7613 19.2799 72.4413 19.0599 72.0813 19.0599C71.8413 19.0599 71.6013 19.1532 71.3613 19.3399C71.1346 19.5266 70.8946 19.8332 70.6413 20.2599C70.4013 20.6732 70.1279 21.2332 69.8213 21.9399C69.6346 22.3932 69.4079 22.8199 69.1413 23.2199C68.8879 23.6199 68.5946 23.9799 68.2613 24.2999C67.9413 24.6332 67.5746 24.9266 67.1613 25.1799C66.6279 25.4999 66.0346 25.7466 65.3813 25.9199C64.7279 26.0932 64.0013 26.1799 63.2013 26.1799Z" fill="white"/>
<path d="M41.1 25.86C38.86 25.86 36.84 25.6133 35.04 25.12C33.2534 24.64 31.7267 23.9067 30.46 22.92C29.1934 21.92 28.22 20.6467 27.54 19.1C26.8734 17.5533 26.54 15.72 26.54 13.6C26.54 13.0133 26.5734 12.4467 26.64 11.9C26.72 11.3533 26.8334 10.8333 26.98 10.34C27.14 9.84667 27.3267 9.38667 27.54 8.96C28.0867 7.89333 28.8467 7.05333 29.82 6.44C30.8067 5.81333 31.9867 5.5 33.36 5.5C34.72 5.5 35.7334 5.7 36.4 6.1C37.08 6.5 37.5334 6.99333 37.76 7.58C38 8.16667 38.1334 8.73333 38.16 9.28C38.1867 9.62667 38.2067 9.96 38.22 10.28C38.2467 10.5867 38.2734 10.8867 38.3 11.18C38.3267 11.46 38.3534 11.7333 38.38 12C38.42 12.2533 38.46 12.5 38.5 12.74C38.66 13.62 38.86 14.32 39.1 14.84C39.3534 15.36 39.6667 15.74 40.04 15.98C40.4267 16.2067 40.8867 16.32 41.42 16.32C41.7667 16.32 42.1067 16.2333 42.44 16.06C42.7867 15.8867 43.1 15.58 43.38 15.14C43.6734 14.7 43.9134 14.0867 44.1 13.3C44.1934 12.9267 44.26 12.5667 44.3 12.22C44.3534 11.86 44.3934 11.5133 44.42 11.18C44.46 10.8333 44.5134 10.4933 44.58 10.16C44.6467 9.82667 44.74 9.49333 44.86 9.16C45.2067 8.25333 45.78 7.50667 46.58 6.92C47.3934 6.33333 48.5467 6.04 50.04 6.04C51.36 6.04 52.3734 6.37333 53.08 7.04C53.8 7.69333 54.32 8.56667 54.64 9.66C54.7334 9.99333 54.8134 10.3467 54.88 10.72C54.9467 11.0933 54.9934 11.4867 55.02 11.9C55.06 12.3 55.0867 12.7133 55.1 13.14C55.1267 13.5667 55.14 14 55.14 14.44C55.14 17.2133 54.5334 19.44 53.32 21.12C52.1067 22.7867 50.44 23.9933 48.32 24.74C46.2134 25.4867 43.8067 25.86 41.1 25.86Z" fill="white"/>
<path d="M6.98 25.74C4.36667 25.3 2.54667 24.34 1.52 22.86C0.506667 21.38 0 19.3733 0 16.84C0 16.3067 0.0200001 15.7333 0.0600002 15.12C0.113334 14.4933 0.173334 13.8533 0.24 13.2C0.32 12.5333 0.413334 11.8733 0.52 11.22C0.626667 10.5533 0.74 9.92 0.86 9.32C0.98 8.70667 1.1 8.14667 1.22 7.64C1.76667 5.37333 2.63333 3.53333 3.82 2.12C5.00667 0.706666 6.56667 0 8.5 0C9.84667 0 10.84 0.253333 11.48 0.76C12.1333 1.25333 12.56 1.94667 12.76 2.84C12.96 3.72 13.06 4.74667 13.06 5.92C13.06 6.24 13.06 6.56 13.06 6.88C13.06 7.18667 13.06 7.49333 13.06 7.8C13.0733 8.10667 13.0867 8.41333 13.1 8.72C13.1133 9.01333 13.1267 9.3 13.14 9.58C13.1667 9.86 13.1933 10.14 13.22 10.42C13.2467 10.6867 13.28 10.9467 13.32 11.2C13.3867 11.5733 13.48 11.92 13.6 12.24C13.7333 12.5467 13.9 12.82 14.1 13.06C14.3133 13.3 14.56 13.4933 14.84 13.64C15.12 13.7733 15.44 13.86 15.8 13.9C17.0267 14.0333 18.1733 14.1933 19.24 14.38C20.3067 14.5667 21.1667 14.7467 21.82 14.92C22.1267 15 22.5 15.1267 22.94 15.3C23.38 15.4733 23.7533 15.6933 24.06 15.96C24.38 16.24 24.62 16.5933 24.78 17.02C24.9533 17.4333 25.04 17.98 25.04 18.66C25.04 19.8467 24.7533 20.86 24.18 21.7C23.6067 22.5267 22.8733 23.2133 21.98 23.76C21.0867 24.3067 20.1467 24.74 19.16 25.06C18.3067 25.34 17.24 25.56 15.96 25.72C14.6933 25.8933 13.4133 25.98 12.12 25.98C11.4667 25.98 10.8267 25.9733 10.2 25.96C9.58667 25.96 9.00667 25.94 8.46 25.9C7.91333 25.86 7.42 25.8067 6.98 25.74Z" fill="white"/>
</svg>
