<svg width="48" height="38" viewBox="0 0 48 38" fill="none" xmlns="http://www.w3.org/2000/svg">
<circle cx="32" cy="21.5" r="16" fill="#FEF4F1"/>
<path d="M4.70667 15.7933V18.6173C4.70649 19.3589 4.85242 20.0933 5.13611 20.7786C5.4198 21.4638 5.83571 22.0865 6.36006 22.6109C6.88442 23.1354 7.50697 23.5515 8.19214 23.8353C8.87731 24.1192 9.61169 24.2653 10.3533 24.2653H27.2933M4.70667 8.73462H21.6467C22.3884 8.73444 23.1229 8.88041 23.8083 9.16419C24.4936 9.44797 25.1163 9.86399 25.6408 10.3885C26.1653 10.913 26.5813 11.5357 26.8651 12.221C27.1489 12.9063 27.2948 13.6409 27.2947 14.3826V17.2053" stroke="black" stroke-width="1.5" stroke-linecap="round" stroke-linejoin="round"/>
<path d="M23.0587 20.0293L27.2947 24.264L23.0587 28.5M8.94132 12.9707L4.70532 8.73467L8.94132 4.5" stroke="black" stroke-width="1.5" stroke-linecap="round" stroke-linejoin="round"/>
</svg>
